<svg id="Layer_1" data-name="Layer 1" xmlns="http://www.w3.org/2000/svg" viewBox="0 0 64 56"><defs><style>.cls-1{fill:#232829;}</style></defs><title>icons</title><path class="cls-1" d="M53,56H11a5,5,0,0,1-5-5V7H8V51a3,3,0,0,0,3,3H53a3,3,0,0,0,3-3V7h2V51A5,5,0,0,1,53,56Z"/><rect class="cls-1" x="2" y="6" width="60" height="2"/><path class="cls-1" d="M43,7H41V5a3,3,0,0,0-3-3H26a3,3,0,0,0-3,3V7H21V5a5,5,0,0,1,5-5H38a5,5,0,0,1,5,5V7Z"/><rect class="cls-1" x="12" y="12" width="2" height="32"/><path class="cls-1" d="M59,24H57V22h2a3,3,0,0,0,3-3V17a3,3,0,0,0-3-3H57V12h2a5,5,0,0,1,5,5v2A5,5,0,0,1,59,24Z"/><path class="cls-1" d="M7,24H5a5,5,0,0,1-5-5V17a5,5,0,0,1,5-5H7v2H5a3,3,0,0,0-3,3v2a3,3,0,0,0,3,3H7v2Z"/><rect class="cls-1" y="54" width="64" height="2"/><rect class="cls-1" x="7" y="48" width="50" height="2"/></svg>