<svg id="Layer_1" data-name="Layer 1" xmlns="http://www.w3.org/2000/svg" viewBox="0 0 54 64"><defs><style>.cls-1{fill:#232829;}</style></defs><title>icons</title><path class="cls-1" d="M31,35a1,1,0,0,1-.47-0.12C29.86,34.52,14,26,14,15V8a5,5,0,0,1,5-5V5a3,3,0,0,0-3,3v7c0,8.79,12.41,16.37,15,17.85C33.59,31.37,46,23.79,46,15V8a3,3,0,0,0-3-3V3a5,5,0,0,1,5,5v7c0,11-15.86,19.52-16.53,19.88A1,1,0,0,1,31,35Z"/><path class="cls-1" d="M22,8a4,4,0,1,1,4-4A4,4,0,0,1,22,8Zm0-6a2,2,0,1,0,2,2A2,2,0,0,0,22,2Z"/><path class="cls-1" d="M40,8a4,4,0,1,1,4-4A4,4,0,0,1,40,8Zm0-6a2,2,0,1,0,2,2A2,2,0,0,0,40,2Z"/><rect class="cls-1" x="30" y="34" width="2" height="7"/><path class="cls-1" d="M42,64A12,12,0,0,1,30,52V44h2v8A10,10,0,1,0,42,42H13V40H42A12,12,0,0,1,42,64Z"/><path class="cls-1" d="M31,27c-9.05,0-13.4-3.06-13.58-3.19l1.17-1.62S22.65,25,31,25s12.38-2.79,12.42-2.81l1.17,1.63C44.4,23.94,40.05,27,31,27Z"/><path class="cls-1" d="M42,60a8,8,0,0,1,0-16v2a6,6,0,1,0,6,6h2A8,8,0,0,1,42,60Z"/><path class="cls-1" d="M7,48a7,7,0,1,1,7-7A7,7,0,0,1,7,48ZM7,36a5,5,0,1,0,5,5A5,5,0,0,0,7,36Z"/><path class="cls-1" d="M7,43a2,2,0,1,1,2-2A2,2,0,0,1,7,43Zm0-2H7Z"/></svg>