<svg id="Layer_1" data-name="Layer 1" xmlns="http://www.w3.org/2000/svg" viewBox="0 0 50 64"><defs><style>.cls-1{fill:#232829;}</style></defs><title>icons</title><polygon class="cls-1" points="50 64 4 64 4 59 6 59 6 62 48 62 48 6 41 6 41 4 50 4 50 64"/><rect class="cls-1" x="6" y="16" width="34" height="2"/><rect class="cls-1" x="6" y="20" width="34" height="2"/><rect class="cls-1" x="6" y="24" width="34" height="2"/><rect class="cls-1" x="6" y="28" width="14" height="2"/><rect class="cls-1" x="6" y="39" width="2" height="15"/><rect class="cls-1" x="10" y="44" width="2" height="10"/><rect class="cls-1" x="14" y="35" width="2" height="19"/><rect class="cls-1" x="18" y="41" width="2" height="13"/><rect class="cls-1" x="22" y="37" width="2" height="17"/><rect class="cls-1" x="26" y="43" width="2" height="11"/><rect class="cls-1" x="30" y="41" width="2" height="13"/><rect class="cls-1" x="34" y="34" width="2" height="20"/><rect class="cls-1" x="38" y="37" width="2" height="17"/><polygon class="cls-1" points="44 10 36 10 36 2 38 2 38 8 44 8 44 10"/><path class="cls-1" d="M46,60H0V0H37.41L46,8.59V60ZM2,58H44V9.41L36.59,2H2V58Z"/><path class="cls-1" d="M31,14H7a1,1,0,0,1-1-1V7A1,1,0,0,1,7,6H31a1,1,0,0,1,1,1v6A1,1,0,0,1,31,14ZM8,12H30V8H8v4Z"/></svg>