<svg id="Layer_1" data-name="Layer 1" xmlns="http://www.w3.org/2000/svg" viewBox="0 0 64 60"><defs><style>.cls-1{fill:#232829;}</style></defs><title>icons</title><path class="cls-1" d="M63,56H1a1,1,0,0,1-1-1V11a1,1,0,0,1,1-1H63a1,1,0,0,1,1,1V55A1,1,0,0,1,63,56ZM2,54H62V12H2V54Z"/><path class="cls-1" d="M64,8H62V2H2V8H0V1A1,1,0,0,1,1,0H63a1,1,0,0,1,1,1V8Z"/><rect class="cls-1" x="5" y="4" width="54" height="2"/><path class="cls-1" d="M26,24H22a1,1,0,0,1-1-1V19a1,1,0,0,1,1-1h4a1,1,0,0,1,1,1v4A1,1,0,0,1,26,24Zm-3-2h2V20H23v2Z"/><path class="cls-1" d="M34,24H30a1,1,0,0,1-1-1V19a1,1,0,0,1,1-1h4a1,1,0,0,1,1,1v4A1,1,0,0,1,34,24Zm-3-2h2V20H31v2Z"/><path class="cls-1" d="M10,24H6a1,1,0,0,1-1-1V19a1,1,0,0,1,1-1h4a1,1,0,0,1,1,1v4A1,1,0,0,1,10,24ZM7,22H9V20H7v2Z"/><path class="cls-1" d="M18,24H14a1,1,0,0,1-1-1V19a1,1,0,0,1,1-1h4a1,1,0,0,1,1,1v4A1,1,0,0,1,18,24Zm-3-2h2V20H15v2Z"/><path class="cls-1" d="M42,24H38a1,1,0,0,1-1-1V19a1,1,0,0,1,1-1h4a1,1,0,0,1,1,1v4A1,1,0,0,1,42,24Zm-3-2h2V20H39v2Z"/><path class="cls-1" d="M50,24H46a1,1,0,0,1-1-1V19a1,1,0,0,1,1-1h4a1,1,0,0,1,1,1v4A1,1,0,0,1,50,24Zm-3-2h2V20H47v2Z"/><path class="cls-1" d="M58,24H54a1,1,0,0,1-1-1V19a1,1,0,0,1,1-1h4a1,1,0,0,1,1,1v4A1,1,0,0,1,58,24Zm-3-2h2V20H55v2Z"/><path class="cls-1" d="M10,32H6a1,1,0,0,1-1-1V27a1,1,0,0,1,1-1h4a1,1,0,0,1,1,1v4A1,1,0,0,1,10,32ZM7,30H9V28H7v2Z"/><path class="cls-1" d="M18,32H14a1,1,0,0,1-1-1V27a1,1,0,0,1,1-1h4a1,1,0,0,1,1,1v4A1,1,0,0,1,18,32Zm-3-2h2V28H15v2Z"/><path class="cls-1" d="M26,48H22a1,1,0,0,1-1-1V43a1,1,0,0,1,1-1h4a1,1,0,0,1,1,1v4A1,1,0,0,1,26,48Zm-3-2h2V44H23v2Z"/><path class="cls-1" d="M34,48H30a1,1,0,0,1-1-1V43a1,1,0,0,1,1-1h4a1,1,0,0,1,1,1v4A1,1,0,0,1,34,48Zm-3-2h2V44H31v2Z"/><path class="cls-1" d="M10,48H6a1,1,0,0,1-1-1V43a1,1,0,0,1,1-1h4a1,1,0,0,1,1,1v4A1,1,0,0,1,10,48ZM7,46H9V44H7v2Z"/><path class="cls-1" d="M18,48H14a1,1,0,0,1-1-1V43a1,1,0,0,1,1-1h4a1,1,0,0,1,1,1v4A1,1,0,0,1,18,48Zm-3-2h2V44H15v2Z"/><path class="cls-1" d="M42,48H38a1,1,0,0,1-1-1V43a1,1,0,0,1,1-1h4a1,1,0,0,1,1,1v4A1,1,0,0,1,42,48Zm-3-2h2V44H39v2Z"/><path class="cls-1" d="M50,48H46a1,1,0,0,1-1-1V43a1,1,0,0,1,1-1h4a1,1,0,0,1,1,1v4A1,1,0,0,1,50,48Zm-3-2h2V44H47v2Z"/><path class="cls-1" d="M58,48H54a1,1,0,0,1-1-1V43a1,1,0,0,1,1-1h4a1,1,0,0,1,1,1v4A1,1,0,0,1,58,48Zm-3-2h2V44H55v2Z"/><path class="cls-1" d="M50,40H46a1,1,0,0,1-1-1V35a1,1,0,0,1,1-1h4a1,1,0,0,1,1,1v4A1,1,0,0,1,50,40Zm-3-2h2V36H47v2Z"/><path class="cls-1" d="M58,40H54a1,1,0,0,1-1-1V35a1,1,0,0,1,1-1h4a1,1,0,0,1,1,1v4A1,1,0,0,1,58,40Zm-3-2h2V36H55v2Z"/><rect class="cls-1" y="58" width="64" height="2"/><rect class="cls-1" x="23" y="28" width="2" height="2"/><rect class="cls-1" x="31" y="28" width="2" height="2"/><rect class="cls-1" x="39" y="28" width="2" height="2"/><rect class="cls-1" x="47" y="28" width="2" height="2"/><rect class="cls-1" x="55" y="28" width="2" height="2"/><rect class="cls-1" x="7" y="36" width="2" height="2"/><rect class="cls-1" x="15" y="36" width="2" height="2"/><rect class="cls-1" x="23" y="36" width="2" height="2"/><rect class="cls-1" x="31" y="36" width="2" height="2"/><rect class="cls-1" x="39" y="36" width="2" height="2"/></svg>