<svg id="Layer_1" data-name="Layer 1" xmlns="http://www.w3.org/2000/svg" viewBox="0 0 64 60"><defs><style>.cls-1{fill:#232829;}</style></defs><title>icons</title><rect class="cls-1" y="58" width="64" height="2"/><rect class="cls-1" x="17" y="12" width="2" height="47"/><path class="cls-1" d="M28,30H26c0-10.77-2.62-16-8-16s-8,5.23-8,16H8c0-11.94,3.36-18,10-18S28,18.06,28,30Z"/><path class="cls-1" d="M35,31H1a1,1,0,0,1-1-1,18,18,0,0,1,36,0A1,1,0,0,1,35,31ZM2,29H34A16,16,0,0,0,2,29Z"/><path class="cls-1" d="M54.29,59.71L48.59,54H23V52H49a1,1,0,0,1,.71.29l6,6Z"/><rect class="cls-1" x="21.76" y="55" width="8.49" height="2" transform="translate(-31.98 34.79) rotate(-45)"/><rect class="cls-1" x="27.5" y="42.14" width="2" height="12.73" transform="translate(-25.95 34.36) rotate(-45)"/><path class="cls-1" d="M42.29,53.71L38.59,50H29V48H39a1,1,0,0,1,.71.29l4,4Z"/><path class="cls-1" d="M49,16h0a1,1,0,0,1-1-.75c0-.12-0.95-3.25-6-3.25V10c3.93,0,6,1.56,7,2.9,1-1.34,3.07-2.9,7-2.9v2c-5.08,0-6,3.12-6,3.26A1,1,0,0,1,49,16Z"/><rect class="cls-1" x="48" y="15" width="2" height="1"/><path class="cls-1" d="M45,38a18.87,18.87,0,0,1-11.08-3.56l1.17-1.62a17,17,0,1,0-5.75-20.43l-1.84-.78A19,19,0,1,1,45,38Z"/></svg>