<svg id="Layer_1" data-name="Layer 1" xmlns="http://www.w3.org/2000/svg" viewBox="0 0 64 64"><defs><style>.cls-1{fill:#232829;}</style></defs><title>icons</title><path class="cls-1" d="M54,64c-8.75,0-13-4.58-13-14V49.41l-6.71-6.71,1.41-1.41,7,7A1,1,0,0,1,43,49v1c0,8.21,3.32,11.92,10.77,12l0.55-.27-5-5a1,1,0,0,1,0-1.41l6-6a1,1,0,0,1,1.41,0l5,5L62,53.77C61.92,46.32,58.21,43,50,43H49a1,1,0,0,1-.71-0.29l-10-10,1.41-1.41L49.41,41H50c9.42,0,14,4.25,14,13a1,1,0,0,1-.11.45l-1,2a1,1,0,0,1-1.6.26L56,51.41,51.41,56l5.29,5.29a1,1,0,0,1-.26,1.6l-2,1A1,1,0,0,1,54,64Z"/><path class="cls-1" d="M21.29,29.71L14.59,23H14C4.58,23,0,18.75,0,10A1,1,0,0,1,.11,9.55l1-2a1,1,0,0,1,1.6-.26L8,12.59,12.59,8,7.29,2.71a1,1,0,0,1,.26-1.6l2-1A1,1,0,0,1,10,0c8.75,0,13,4.58,13,14v0.59l9.71,9.71-1.41,1.41-10-10A1,1,0,0,1,21,15V14C21,5.79,17.68,2.08,10.23,2l-0.55.27,5,5a1,1,0,0,1,0,1.41l-6,6a1,1,0,0,1-1.41,0l-5-5L2,10.23C2.08,17.68,5.79,21,14,21h1a1,1,0,0,1,.71.29l7,7Z"/><path class="cls-1" d="M10,64H8a1,1,0,0,1-.71-0.29l-7-7A1,1,0,0,1,0,56V54a1,1,0,0,1,.29-0.71l23-23a1,1,0,0,1,1.41,0l9,9a1,1,0,0,1,0,1.41l-23,23A1,1,0,0,1,10,64ZM8.41,62H9.59l22-22L24,32.41l-22,22v1.17Z"/><path class="cls-1" d="M32,39a1,1,0,0,1-.71-1.71L33.59,35,29,30.41l-2.29,2.29a1,1,0,0,1-1.41-1.41l3-3a1,1,0,0,1,1.41,0l6,6a1,1,0,0,1,0,1.41l-3,3A1,1,0,0,1,32,39Z"/><path class="cls-1" d="M34,34a1,1,0,0,1-.71-1.71l22-22A1,1,0,0,1,56,10h2.38l3.4-6.8-1-1L54,5.62V8a1,1,0,0,1-.29.71l-22,22a1,1,0,0,1-1.41-1.41L52,7.59V5a1,1,0,0,1,.55-0.89l8-4a1,1,0,0,1,1.15.19l2,2a1,1,0,0,1,.19,1.15l-4,8A1,1,0,0,1,59,12H56.41L34.71,33.71A1,1,0,0,1,34,34Z"/><path class="cls-1" d="M6,56a1,1,0,0,1-.71-1.71l18-18a1,1,0,0,1,1.41,1.41l-18,18A1,1,0,0,1,6,56Z"/><path class="cls-1" d="M9,59a1,1,0,0,1-.71-1.71l18-18a1,1,0,0,1,1.41,1.41l-18,18A1,1,0,0,1,9,59Z"/></svg>