<svg id="Layer_1" data-name="Layer 1" xmlns="http://www.w3.org/2000/svg" viewBox="0 0 64 64"><defs><style>.cls-1{fill:#232829;}</style></defs><title>icons</title><path class="cls-1" d="M6,34a4,4,0,1,1,4-4A4,4,0,0,1,6,34Zm0-6a2,2,0,1,0,2,2A2,2,0,0,0,6,28Z"/><path class="cls-1" d="M15,58H11a3,3,0,0,1-3-3V39a3,3,0,0,1,3-3h4a3,3,0,0,1,3,3V55A3,3,0,0,1,15,58ZM11,38a1,1,0,0,0-1,1V55a1,1,0,0,0,1,1h4a1,1,0,0,0,1-1V39a1,1,0,0,0-1-1H11Z"/><rect class="cls-1" x="31" y="45" width="2" height="2"/><rect class="cls-1" x="27" y="45" width="2" height="2"/><rect class="cls-1" x="35" y="45" width="2" height="2"/><path class="cls-1" d="M36,64H30a3,3,0,0,1-3-3V60a3,3,0,0,1,3-3h6a3,3,0,0,1,3,3v1A3,3,0,0,1,36,64Zm-6-5a1,1,0,0,0-1,1v1a1,1,0,0,0,1,1h6a1,1,0,0,0,1-1V60a1,1,0,0,0-1-1H30Z"/><path class="cls-1" d="M52,64H36V62H52a2,2,0,0,0,2-2V55h2v5A4,4,0,0,1,52,64Z"/><path class="cls-1" d="M9,56A9,9,0,0,1,9,38v2A7,7,0,0,0,9,54v2Z"/><path class="cls-1" d="M4,42H2V36a1,1,0,0,1,.05-0.32l1-3,1.9,0.63L4,36.16V42Z"/><path class="cls-1" d="M58,34a4,4,0,1,1,4-4A4,4,0,0,1,58,34Zm0-6a2,2,0,1,0,2,2A2,2,0,0,0,58,28Z"/><path class="cls-1" d="M53,58H49a3,3,0,0,1-3-3V39a3,3,0,0,1,3-3h4a3,3,0,0,1,3,3V55A3,3,0,0,1,53,58ZM49,38a1,1,0,0,0-1,1V55a1,1,0,0,0,1,1h4a1,1,0,0,0,1-1V39a1,1,0,0,0-1-1H49Z"/><path class="cls-1" d="M55,56V54a7,7,0,0,0,0-14V38A9,9,0,0,1,55,56Z"/><path class="cls-1" d="M62,42H60V36.16l-0.95-2.85,1.9-.63,1,3A1,1,0,0,1,62,36v6Z"/><path class="cls-1" d="M59,27H57A25,25,0,0,0,7,27H5A27,27,0,0,1,59,27Z"/><path class="cls-1" d="M55,27H53a21,21,0,0,0-42,0H9A23,23,0,0,1,55,27Z"/></svg>