<svg id="Layer_1" data-name="Layer 1" xmlns="http://www.w3.org/2000/svg" viewBox="0 0 64 60"><defs><style>.cls-1{fill:#232829;}</style></defs><title>icons</title><path class="cls-1" d="M61,60H3a3,3,0,0,1-3-3V21a3,3,0,0,1,3-3H22v2H3a1,1,0,0,0-1,1V57a1,1,0,0,0,1,1H61a1,1,0,0,0,1-1V21a1,1,0,0,0-1-1H42V18H61a3,3,0,0,1,3,3V57A3,3,0,0,1,61,60Z"/><rect class="cls-1" x="20" y="22" width="24" height="2"/><path class="cls-1" d="M32,12a4,4,0,1,1,4-4A4,4,0,0,1,32,12Zm0-6a2,2,0,1,0,2,2A2,2,0,0,0,32,6Z"/><path class="cls-1" d="M40,23H38V8A6,6,0,0,0,26,8V23H24V8A8,8,0,0,1,40,8V23Z"/><path class="cls-1" d="M17,44c-3.42,0-6-3.22-6-7.5,0-3,.68-6.5,6-6.5s6,3.47,6,6.5C23,40.78,20.42,44,17,44Zm0-12c-3,0-4,1.09-4,4.5,0,2.67,1.4,5.5,4,5.5s4-2.83,4-5.5C21,33.09,20,32,17,32Z"/><path class="cls-1" d="M25,52H9c-1.63,0-3-1.83-3-4V45.42l7.5-4.29,1,1.74L8,46.58V48a2,2,0,0,0,1,2H25a2,2,0,0,0,1-2V46.58l-6.5-3.71,1-1.74L28,45.42V48C28,50.17,26.63,52,25,52Z"/><rect class="cls-1" x="49" y="34" width="9" height="2"/><rect class="cls-1" x="30" y="34" width="17" height="2"/><rect class="cls-1" x="41" y="30" width="17" height="2"/><rect class="cls-1" x="30" y="30" width="9" height="2"/><path class="cls-1" d="M58,52H30V42H58V52ZM32,50H56V44H32v6Z"/><rect class="cls-1" x="35" y="46" width="2" height="2"/><rect class="cls-1" x="39" y="46" width="2" height="2"/><rect class="cls-1" x="43" y="46" width="2" height="2"/><rect class="cls-1" x="47" y="46" width="2" height="2"/><rect class="cls-1" x="51" y="46" width="2" height="2"/></svg>